<mxfile host="app.diagrams.net" modified="2024-03-18T06:59:03.882Z" agent="Mozilla/5.0 (Macintosh; Intel Mac OS X 10_15_7) AppleWebKit/537.36 (KHTML, like Gecko) Chrome/122.0.0.0 Safari/537.36" etag="PCHtr8zzLGtT2is4IyL6" version="22.1.21" type="device">
  <diagram name="第 1 页" id="_yUB_rn5PIO8Qkfh15Yj">
    <mxGraphModel dx="2473" dy="1070" grid="1" gridSize="10" guides="1" tooltips="1" connect="1" arrows="1" fold="1" page="1" pageScale="1" pageWidth="827" pageHeight="1169" math="0" shadow="0">
      <root>
        <mxCell id="0" />
        <mxCell id="1" parent="0" />
        <mxCell id="n320dYOvcEdCpAnGixLz-7" style="edgeStyle=orthogonalEdgeStyle;rounded=0;orthogonalLoop=1;jettySize=auto;html=1;fontColor=default;labelBackgroundColor=default;fontFamily=Helvetica;align=center;fontStyle=0;fontSize=14;" parent="1" source="n320dYOvcEdCpAnGixLz-1" target="n320dYOvcEdCpAnGixLz-5" edge="1">
          <mxGeometry relative="1" as="geometry" />
        </mxCell>
        <mxCell id="n320dYOvcEdCpAnGixLz-1" value="模块" style="rounded=1;whiteSpace=wrap;html=1;fontColor=default;labelBackgroundColor=default;fontFamily=Helvetica;align=center;fontStyle=0;fontSize=14;" parent="1" vertex="1">
          <mxGeometry x="195" y="680" width="120" height="60" as="geometry" />
        </mxCell>
        <mxCell id="n320dYOvcEdCpAnGixLz-6" style="edgeStyle=orthogonalEdgeStyle;rounded=0;orthogonalLoop=1;jettySize=auto;html=1;fontColor=default;labelBackgroundColor=default;fontFamily=Helvetica;align=center;fontStyle=0;fontSize=14;" parent="1" source="n320dYOvcEdCpAnGixLz-2" target="n320dYOvcEdCpAnGixLz-1" edge="1">
          <mxGeometry relative="1" as="geometry" />
        </mxCell>
        <mxCell id="n320dYOvcEdCpAnGixLz-2" value="模块预加载" style="shape=umlActor;verticalLabelPosition=bottom;verticalAlign=top;html=1;outlineConnect=0;fontColor=default;labelBackgroundColor=default;fontFamily=Helvetica;align=center;fontStyle=0;fontSize=14;" parent="1" vertex="1">
          <mxGeometry x="240" y="780" width="30" height="60" as="geometry" />
        </mxCell>
        <mxCell id="n320dYOvcEdCpAnGixLz-9" style="edgeStyle=orthogonalEdgeStyle;rounded=0;orthogonalLoop=1;jettySize=auto;html=1;fontColor=default;labelBackgroundColor=default;fontFamily=Helvetica;align=center;fontStyle=0;fontSize=14;" parent="1" source="n320dYOvcEdCpAnGixLz-5" target="n320dYOvcEdCpAnGixLz-8" edge="1">
          <mxGeometry relative="1" as="geometry" />
        </mxCell>
        <mxCell id="n320dYOvcEdCpAnGixLz-5" value="preFetchlib" style="rounded=0;whiteSpace=wrap;html=1;fontColor=default;labelBackgroundColor=default;fontFamily=Helvetica;align=center;fontStyle=0;fontSize=14;" parent="1" vertex="1">
          <mxGeometry x="195" y="585" width="120" height="60" as="geometry" />
        </mxCell>
        <mxCell id="n320dYOvcEdCpAnGixLz-11" style="edgeStyle=orthogonalEdgeStyle;rounded=0;orthogonalLoop=1;jettySize=auto;html=1;fontSize=14;fontColor=default;labelBackgroundColor=default;fontFamily=Helvetica;" parent="1" source="n320dYOvcEdCpAnGixLz-8" target="n320dYOvcEdCpAnGixLz-10" edge="1">
          <mxGeometry relative="1" as="geometry" />
        </mxCell>
        <mxCell id="n320dYOvcEdCpAnGixLz-8" value="&lt;div style=&quot;font-size: 14px; line-height: 19px; white-space: pre;&quot;&gt;&lt;span style=&quot;font-size: 14px;&quot;&gt;getLibOrApp&lt;/span&gt;&lt;/div&gt;" style="rounded=0;whiteSpace=wrap;html=1;fontColor=default;labelBackgroundColor=default;fontFamily=Helvetica;align=center;fontStyle=0;fontSize=14;" parent="1" vertex="1">
          <mxGeometry x="195" y="490" width="120" height="60" as="geometry" />
        </mxCell>
        <mxCell id="n320dYOvcEdCpAnGixLz-13" style="edgeStyle=orthogonalEdgeStyle;rounded=0;orthogonalLoop=1;jettySize=auto;html=1;fontSize=14;fontColor=default;labelBackgroundColor=default;fontFamily=Helvetica;" parent="1" source="n320dYOvcEdCpAnGixLz-10" target="n320dYOvcEdCpAnGixLz-12" edge="1">
          <mxGeometry relative="1" as="geometry">
            <mxPoint x="255" y="360" as="targetPoint" />
          </mxGeometry>
        </mxCell>
        <mxCell id="n320dYOvcEdCpAnGixLz-10" value="&lt;div style=&quot;font-size: 14px; line-height: 19px; white-space: pre;&quot;&gt;&lt;div style=&quot;line-height: 19px; font-size: 14px;&quot;&gt;&lt;span style=&quot;font-size: 14px;&quot;&gt;getVerLoadStatus&lt;/span&gt;&lt;/div&gt;&lt;/div&gt;" style="rounded=0;whiteSpace=wrap;html=1;fontColor=default;labelBackgroundColor=default;fontFamily=Helvetica;align=center;fontStyle=0;fontSize=14;" parent="1" vertex="1">
          <mxGeometry x="195" y="400" width="120" height="60" as="geometry" />
        </mxCell>
        <mxCell id="n320dYOvcEdCpAnGixLz-16" style="edgeStyle=orthogonalEdgeStyle;rounded=0;orthogonalLoop=1;jettySize=auto;html=1;entryX=0.5;entryY=1;entryDx=0;entryDy=0;fontSize=14;fontColor=default;labelBackgroundColor=default;fontFamily=Helvetica;" parent="1" source="n320dYOvcEdCpAnGixLz-12" target="n320dYOvcEdCpAnGixLz-15" edge="1">
          <mxGeometry relative="1" as="geometry" />
        </mxCell>
        <mxCell id="n320dYOvcEdCpAnGixLz-48" value="Y" style="edgeLabel;html=1;align=center;verticalAlign=middle;resizable=0;points=[];fontSize=14;fontColor=default;labelBackgroundColor=default;fontFamily=Helvetica;" parent="n320dYOvcEdCpAnGixLz-16" vertex="1" connectable="0">
          <mxGeometry x="0.0833" y="3" relative="1" as="geometry">
            <mxPoint x="3" y="2" as="offset" />
          </mxGeometry>
        </mxCell>
        <mxCell id="n320dYOvcEdCpAnGixLz-18" style="edgeStyle=orthogonalEdgeStyle;rounded=0;orthogonalLoop=1;jettySize=auto;html=1;fontSize=14;fontColor=default;labelBackgroundColor=default;fontFamily=Helvetica;" parent="1" source="n320dYOvcEdCpAnGixLz-12" target="n320dYOvcEdCpAnGixLz-17" edge="1">
          <mxGeometry relative="1" as="geometry" />
        </mxCell>
        <mxCell id="n320dYOvcEdCpAnGixLz-49" value="N" style="edgeLabel;html=1;align=center;verticalAlign=middle;resizable=0;points=[];fontSize=14;fontColor=default;labelBackgroundColor=default;fontFamily=Helvetica;" parent="n320dYOvcEdCpAnGixLz-18" vertex="1" connectable="0">
          <mxGeometry x="-0.3392" y="3" relative="1" as="geometry">
            <mxPoint x="-14" y="3" as="offset" />
          </mxGeometry>
        </mxCell>
        <mxCell id="n320dYOvcEdCpAnGixLz-12" value="是否加载过" style="rhombus;whiteSpace=wrap;html=1;fontSize=14;fontColor=default;labelBackgroundColor=default;fontFamily=Helvetica;" parent="1" vertex="1">
          <mxGeometry x="190" y="300" width="130" height="60" as="geometry" />
        </mxCell>
        <mxCell id="n320dYOvcEdCpAnGixLz-26" style="edgeStyle=orthogonalEdgeStyle;rounded=0;orthogonalLoop=1;jettySize=auto;html=1;fontSize=14;fontColor=default;labelBackgroundColor=default;fontFamily=Helvetica;" parent="1" source="n320dYOvcEdCpAnGixLz-15" target="n320dYOvcEdCpAnGixLz-22" edge="1">
          <mxGeometry relative="1" as="geometry" />
        </mxCell>
        <mxCell id="n320dYOvcEdCpAnGixLz-15" value="&lt;div style=&quot;font-size: 14px; line-height: 19px; white-space: pre;&quot;&gt;&lt;div style=&quot;line-height: 19px; font-size: 14px;&quot;&gt;&lt;div style=&quot;line-height: 19px; font-size: 14px;&quot;&gt;&lt;span style=&quot;font-size: 14px;&quot;&gt;waitAppEmit&lt;/span&gt;&lt;/div&gt;&lt;/div&gt;&lt;/div&gt;" style="rounded=0;whiteSpace=wrap;html=1;fontColor=default;labelBackgroundColor=default;fontFamily=Helvetica;align=center;fontStyle=0;fontSize=14;" parent="1" vertex="1">
          <mxGeometry x="195" y="200" width="120" height="60" as="geometry" />
        </mxCell>
        <mxCell id="n320dYOvcEdCpAnGixLz-47" style="edgeStyle=orthogonalEdgeStyle;rounded=0;orthogonalLoop=1;jettySize=auto;html=1;entryX=1;entryY=0.5;entryDx=0;entryDy=0;exitX=1;exitY=0.5;exitDx=0;exitDy=0;fontSize=14;fontColor=default;labelBackgroundColor=default;fontFamily=Helvetica;" parent="1" source="n320dYOvcEdCpAnGixLz-17" target="n320dYOvcEdCpAnGixLz-23" edge="1">
          <mxGeometry relative="1" as="geometry" />
        </mxCell>
        <mxCell id="n320dYOvcEdCpAnGixLz-17" value="&lt;div style=&quot;font-size: 14px; line-height: 19px; white-space: pre;&quot;&gt;&lt;span style=&quot;font-size: 14px;&quot;&gt;loadApp&lt;/span&gt;&lt;/div&gt;" style="rounded=0;whiteSpace=wrap;html=1;fontSize=14;fontColor=default;labelBackgroundColor=default;fontFamily=Helvetica;" parent="1" vertex="1">
          <mxGeometry x="354" y="400" width="120" height="60" as="geometry" />
        </mxCell>
        <mxCell id="n320dYOvcEdCpAnGixLz-28" value="" style="edgeStyle=orthogonalEdgeStyle;rounded=0;orthogonalLoop=1;jettySize=auto;html=1;fontSize=14;fontColor=default;labelBackgroundColor=default;fontFamily=Helvetica;" parent="1" source="n320dYOvcEdCpAnGixLz-22" target="n320dYOvcEdCpAnGixLz-27" edge="1">
          <mxGeometry relative="1" as="geometry" />
        </mxCell>
        <mxCell id="n320dYOvcEdCpAnGixLz-22" value="加载资源&lt;div style=&quot;font-size: 14px;&quot;&gt;&lt;div style=&quot;font-size: 14px; line-height: 19px; white-space: pre;&quot;&gt;&lt;span style=&quot;font-size: 14px;&quot;&gt;loadAppAssets&lt;/span&gt;&lt;/div&gt;&lt;/div&gt;" style="rounded=0;whiteSpace=wrap;html=1;fontSize=14;fontColor=default;labelBackgroundColor=default;fontFamily=Helvetica;" parent="1" vertex="1">
          <mxGeometry x="195" y="90" width="120" height="60" as="geometry" />
        </mxCell>
        <mxCell id="n320dYOvcEdCpAnGixLz-46" style="edgeStyle=orthogonalEdgeStyle;rounded=0;orthogonalLoop=1;jettySize=auto;html=1;fontSize=14;fontColor=default;labelBackgroundColor=default;fontFamily=Helvetica;" parent="1" source="n320dYOvcEdCpAnGixLz-23" target="n320dYOvcEdCpAnGixLz-15" edge="1">
          <mxGeometry relative="1" as="geometry" />
        </mxCell>
        <mxCell id="n320dYOvcEdCpAnGixLz-23" value="AJAX/JSONP 获取模块元数据" style="rounded=0;whiteSpace=wrap;html=1;fontSize=14;fontColor=default;labelBackgroundColor=default;fontFamily=Helvetica;" parent="1" vertex="1">
          <mxGeometry x="354" y="195" width="120" height="70" as="geometry" />
        </mxCell>
        <mxCell id="n320dYOvcEdCpAnGixLz-27" value="获取app数据" style="rounded=0;whiteSpace=wrap;html=1;fontSize=14;fontColor=default;labelBackgroundColor=default;fontFamily=Helvetica;" parent="1" vertex="1">
          <mxGeometry x="195" width="120" height="60" as="geometry" />
        </mxCell>
        <mxCell id="n320dYOvcEdCpAnGixLz-43" style="edgeStyle=orthogonalEdgeStyle;rounded=0;orthogonalLoop=1;jettySize=auto;html=1;entryX=0.5;entryY=1;entryDx=0;entryDy=0;fontSize=14;fontColor=default;labelBackgroundColor=default;fontFamily=Helvetica;" parent="1" source="n320dYOvcEdCpAnGixLz-29" target="n320dYOvcEdCpAnGixLz-34" edge="1">
          <mxGeometry relative="1" as="geometry" />
        </mxCell>
        <mxCell id="n320dYOvcEdCpAnGixLz-29" value="环境" style="shape=umlActor;verticalLabelPosition=bottom;verticalAlign=top;html=1;outlineConnect=0;fontSize=14;fontColor=default;labelBackgroundColor=default;fontFamily=Helvetica;" parent="1" vertex="1">
          <mxGeometry x="-10" y="780" width="30" height="60" as="geometry" />
        </mxCell>
        <mxCell id="n320dYOvcEdCpAnGixLz-36" style="edgeStyle=orthogonalEdgeStyle;rounded=0;orthogonalLoop=1;jettySize=auto;html=1;fontSize=14;fontColor=default;labelBackgroundColor=default;fontFamily=Helvetica;" parent="1" source="n320dYOvcEdCpAnGixLz-34" target="n320dYOvcEdCpAnGixLz-35" edge="1">
          <mxGeometry relative="1" as="geometry" />
        </mxCell>
        <mxCell id="n320dYOvcEdCpAnGixLz-34" value="bindReactRuntime" style="rounded=1;whiteSpace=wrap;html=1;fontSize=14;fontColor=default;labelBackgroundColor=default;fontFamily=Helvetica;" parent="1" vertex="1">
          <mxGeometry x="-55" y="680" width="120" height="60" as="geometry" />
        </mxCell>
        <mxCell id="n320dYOvcEdCpAnGixLz-38" value="" style="edgeStyle=orthogonalEdgeStyle;rounded=0;orthogonalLoop=1;jettySize=auto;html=1;fontSize=14;fontColor=default;labelBackgroundColor=default;fontFamily=Helvetica;" parent="1" source="n320dYOvcEdCpAnGixLz-35" target="n320dYOvcEdCpAnGixLz-37" edge="1">
          <mxGeometry relative="1" as="geometry" />
        </mxCell>
        <mxCell id="n320dYOvcEdCpAnGixLz-35" value="&lt;div style=&quot;font-size: 14px; line-height: 19px; white-space: pre;&quot;&gt;&lt;span style=&quot;font-size: 14px;&quot;&gt;externalObj&lt;/span&gt;&lt;/div&gt;" style="rounded=0;whiteSpace=wrap;html=1;fontSize=14;fontColor=default;labelBackgroundColor=default;fontFamily=Helvetica;" parent="1" vertex="1">
          <mxGeometry x="-55" y="585" width="120" height="60" as="geometry" />
        </mxCell>
        <mxCell id="n320dYOvcEdCpAnGixLz-40" value="" style="edgeStyle=orthogonalEdgeStyle;rounded=0;orthogonalLoop=1;jettySize=auto;html=1;fontSize=14;fontColor=default;labelBackgroundColor=default;fontFamily=Helvetica;" parent="1" source="n320dYOvcEdCpAnGixLz-37" target="n320dYOvcEdCpAnGixLz-39" edge="1">
          <mxGeometry relative="1" as="geometry" />
        </mxCell>
        <mxCell id="n320dYOvcEdCpAnGixLz-37" value="&lt;div style=&quot;font-size: 14px; line-height: 19px; white-space: pre;&quot;&gt;&lt;span style=&quot;font-size: 14px;&quot;&gt;bindExternals&lt;/span&gt;&lt;/div&gt;" style="rounded=0;whiteSpace=wrap;html=1;fontSize=14;fontColor=default;labelBackgroundColor=default;fontFamily=Helvetica;" parent="1" vertex="1">
          <mxGeometry x="-55" y="490" width="120" height="60" as="geometry" />
        </mxCell>
        <mxCell id="n320dYOvcEdCpAnGixLz-39" value="window/global" style="rounded=0;whiteSpace=wrap;html=1;fontSize=14;fontColor=default;labelBackgroundColor=default;fontFamily=Helvetica;" parent="1" vertex="1">
          <mxGeometry x="-55" y="400" width="120" height="60" as="geometry" />
        </mxCell>
        <mxCell id="n320dYOvcEdCpAnGixLz-53" style="edgeStyle=orthogonalEdgeStyle;rounded=0;orthogonalLoop=1;jettySize=auto;html=1;entryX=0.5;entryY=1;entryDx=0;entryDy=0;fontSize=14;fontColor=default;labelBackgroundColor=default;fontFamily=Helvetica;" parent="1" source="n320dYOvcEdCpAnGixLz-41" target="n320dYOvcEdCpAnGixLz-50" edge="1">
          <mxGeometry relative="1" as="geometry" />
        </mxCell>
        <mxCell id="n320dYOvcEdCpAnGixLz-41" value="组件加载" style="shape=umlActor;verticalLabelPosition=bottom;verticalAlign=top;html=1;outlineConnect=0;fontSize=14;fontColor=default;labelBackgroundColor=default;fontFamily=Helvetica;" parent="1" vertex="1">
          <mxGeometry x="675" y="790" width="30" height="60" as="geometry" />
        </mxCell>
        <mxCell id="n320dYOvcEdCpAnGixLz-52" style="edgeStyle=orthogonalEdgeStyle;rounded=0;orthogonalLoop=1;jettySize=auto;html=1;fontSize=14;fontColor=default;labelBackgroundColor=default;fontFamily=Helvetica;" parent="1" source="n320dYOvcEdCpAnGixLz-50" target="n320dYOvcEdCpAnGixLz-51" edge="1">
          <mxGeometry relative="1" as="geometry" />
        </mxCell>
        <mxCell id="n320dYOvcEdCpAnGixLz-50" value="组件" style="rounded=1;whiteSpace=wrap;html=1;fontSize=14;fontColor=default;labelBackgroundColor=default;fontFamily=Helvetica;" parent="1" vertex="1">
          <mxGeometry x="630" y="690" width="120" height="60" as="geometry" />
        </mxCell>
        <mxCell id="n320dYOvcEdCpAnGixLz-57" value="" style="edgeStyle=orthogonalEdgeStyle;rounded=0;orthogonalLoop=1;jettySize=auto;html=1;fontSize=14;fontColor=default;labelBackgroundColor=default;fontFamily=Helvetica;" parent="1" source="n320dYOvcEdCpAnGixLz-51" target="n320dYOvcEdCpAnGixLz-56" edge="1">
          <mxGeometry relative="1" as="geometry" />
        </mxCell>
        <mxCell id="n320dYOvcEdCpAnGixLz-51" value="&lt;div style=&quot;font-size: 14px; line-height: 19px; white-space: pre;&quot;&gt;&lt;span style=&quot;font-size: 14px;&quot;&gt;hel-lib-proxy&lt;/span&gt;&lt;/div&gt;&lt;div style=&quot;font-size: 14px; line-height: 19px; white-space: pre;&quot;&gt;&lt;div style=&quot;line-height: 19px; font-size: 14px;&quot;&gt;&lt;span style=&quot;font-size: 14px;&quot;&gt;exposeLib&lt;/span&gt;&lt;/div&gt;&lt;/div&gt;" style="rounded=0;whiteSpace=wrap;html=1;fontSize=14;fontColor=default;labelBackgroundColor=default;fontFamily=Helvetica;" parent="1" vertex="1">
          <mxGeometry x="630" y="580" width="120" height="60" as="geometry" />
        </mxCell>
        <mxCell id="n320dYOvcEdCpAnGixLz-55" style="edgeStyle=orthogonalEdgeStyle;rounded=0;orthogonalLoop=1;jettySize=auto;html=1;fontSize=14;fontColor=default;labelBackgroundColor=default;fontFamily=Helvetica;" parent="1" source="n320dYOvcEdCpAnGixLz-54" target="n320dYOvcEdCpAnGixLz-51" edge="1">
          <mxGeometry relative="1" as="geometry" />
        </mxCell>
        <mxCell id="n320dYOvcEdCpAnGixLz-54" value="&lt;div style=&quot;font-size: 14px; line-height: 19px; white-space: pre;&quot;&gt;&lt;span style=&quot;font-size: 14px;&quot;&gt;LIB_NAME&lt;/span&gt;&lt;/div&gt;" style="rounded=0;whiteSpace=wrap;html=1;fontSize=14;fontColor=default;labelBackgroundColor=default;fontFamily=Helvetica;" parent="1" vertex="1">
          <mxGeometry x="800" y="580" width="120" height="60" as="geometry" />
        </mxCell>
        <mxCell id="n320dYOvcEdCpAnGixLz-59" value="" style="edgeStyle=orthogonalEdgeStyle;rounded=0;orthogonalLoop=1;jettySize=auto;html=1;fontSize=14;fontColor=default;labelBackgroundColor=default;fontFamily=Helvetica;" parent="1" source="n320dYOvcEdCpAnGixLz-56" target="n320dYOvcEdCpAnGixLz-58" edge="1">
          <mxGeometry relative="1" as="geometry" />
        </mxCell>
        <mxCell id="n320dYOvcEdCpAnGixLz-56" value="proxy" style="rounded=0;whiteSpace=wrap;html=1;fontSize=14;fontColor=default;labelBackgroundColor=default;fontFamily=Helvetica;" parent="1" vertex="1">
          <mxGeometry x="630" y="490" width="120" height="60" as="geometry" />
        </mxCell>
        <mxCell id="n320dYOvcEdCpAnGixLz-58" value="&lt;div style=&quot;font-size: 14px; line-height: 19px; white-space: pre;&quot;&gt;&lt;span style=&quot;font-size: 14px;&quot;&gt;appName2Lib&lt;/span&gt;&lt;/div&gt;" style="rounded=0;whiteSpace=wrap;html=1;fontSize=14;fontColor=default;labelBackgroundColor=default;fontFamily=Helvetica;" parent="1" vertex="1">
          <mxGeometry x="630" y="400" width="120" height="60" as="geometry" />
        </mxCell>
        <mxCell id="n320dYOvcEdCpAnGixLz-66" value="" style="edgeStyle=orthogonalEdgeStyle;rounded=0;orthogonalLoop=1;jettySize=auto;html=1;fontSize=14;fontColor=default;labelBackgroundColor=default;fontFamily=Helvetica;" parent="1" source="n320dYOvcEdCpAnGixLz-62" target="n320dYOvcEdCpAnGixLz-65" edge="1">
          <mxGeometry relative="1" as="geometry" />
        </mxCell>
        <mxCell id="n320dYOvcEdCpAnGixLz-62" value="&lt;div style=&quot;font-size: 14px; line-height: 19px; white-space: pre;&quot;&gt;&lt;span style=&quot;font-size: 14px;&quot;&gt;createReactSubApp&lt;/span&gt;&lt;/div&gt;" style="rounded=0;whiteSpace=wrap;html=1;fontSize=14;fontColor=default;labelBackgroundColor=default;fontFamily=Helvetica;" parent="1" vertex="1">
          <mxGeometry x="-305" y="680" width="120" height="60" as="geometry" />
        </mxCell>
        <mxCell id="n320dYOvcEdCpAnGixLz-68" value="" style="edgeStyle=orthogonalEdgeStyle;rounded=0;orthogonalLoop=1;jettySize=auto;html=1;fontSize=14;fontColor=default;labelBackgroundColor=default;fontFamily=Helvetica;" parent="1" source="n320dYOvcEdCpAnGixLz-65" target="n320dYOvcEdCpAnGixLz-67" edge="1">
          <mxGeometry relative="1" as="geometry" />
        </mxCell>
        <mxCell id="n320dYOvcEdCpAnGixLz-65" value="&lt;div style=&quot;font-size: 14px; line-height: 19px; white-space: pre;&quot;&gt;&lt;span style=&quot;font-size: 14px;&quot;&gt;extractHelMetaJson&lt;/span&gt;&lt;/div&gt;" style="rounded=0;whiteSpace=wrap;html=1;fontSize=14;fontColor=default;labelBackgroundColor=default;fontFamily=Helvetica;" parent="1" vertex="1">
          <mxGeometry x="-305" y="585" width="120" height="60" as="geometry" />
        </mxCell>
        <mxCell id="n320dYOvcEdCpAnGixLz-70" value="" style="edgeStyle=orthogonalEdgeStyle;rounded=0;orthogonalLoop=1;jettySize=auto;html=1;fontSize=14;fontColor=default;labelBackgroundColor=default;fontFamily=Helvetica;" parent="1" source="n320dYOvcEdCpAnGixLz-67" target="n320dYOvcEdCpAnGixLz-69" edge="1">
          <mxGeometry relative="1" as="geometry" />
        </mxCell>
        <mxCell id="n320dYOvcEdCpAnGixLz-67" value="parseHTML" style="rounded=0;whiteSpace=wrap;html=1;fontSize=14;fontColor=default;labelBackgroundColor=default;fontFamily=Helvetica;" parent="1" vertex="1">
          <mxGeometry x="-305" y="495" width="120" height="60" as="geometry" />
        </mxCell>
        <mxCell id="n320dYOvcEdCpAnGixLz-69" value="metaData" style="rounded=0;whiteSpace=wrap;html=1;fontSize=14;fontColor=default;labelBackgroundColor=default;fontFamily=Helvetica;" parent="1" vertex="1">
          <mxGeometry x="-305" y="395" width="120" height="60" as="geometry" />
        </mxCell>
        <mxCell id="n320dYOvcEdCpAnGixLz-72" style="edgeStyle=orthogonalEdgeStyle;rounded=0;orthogonalLoop=1;jettySize=auto;html=1;fontSize=14;fontColor=default;labelBackgroundColor=default;fontFamily=Helvetica;" parent="1" source="n320dYOvcEdCpAnGixLz-71" edge="1">
          <mxGeometry relative="1" as="geometry">
            <mxPoint x="-245" y="730" as="targetPoint" />
          </mxGeometry>
        </mxCell>
        <mxCell id="n320dYOvcEdCpAnGixLz-71" value="打包" style="shape=umlActor;verticalLabelPosition=bottom;verticalAlign=top;html=1;outlineConnect=0;fontSize=14;fontColor=default;labelBackgroundColor=default;fontFamily=Helvetica;" parent="1" vertex="1">
          <mxGeometry x="-260" y="780" width="30" height="60" as="geometry" />
        </mxCell>
      </root>
    </mxGraphModel>
  </diagram>
</mxfile>
